<?xml version="1.0" encoding="UTF-8"?>
<svg width="80px" height="81px" viewBox="0 0 80 81" version="1.1" xmlns="http://www.w3.org/2000/svg" xmlns:xlink="http://www.w3.org/1999/xlink">
    <title>BFAE013B-C1E2-470E-B67C-AAC94977E106</title>
    <g id="WEB" stroke="none" stroke-width="1" fill="none" fill-rule="evenodd">
        <g id="Home-page-alternative3" transform="translate(-135.000000, -17.000000)" fill-rule="nonzero">
            <g id="reach_l_red-copy" transform="translate(135.000000, 17.000000)">
                <polygon id="Rectangle" fill="#6AC6E7" transform="translate(31.077787, 25.306474) rotate(45.000000) translate(-31.077787, -25.306474) " points="19.7236482 2.28701251 42.6171902 2.19507058 42.4319256 48.3259351 19.5383837 48.417877"></polygon>
                <path d="M67.7116964,23.3550947 L68.2450383,23.3574114 L68.3330254,45.2661985 L46.5848835,45.1788566 L46.5819217,44.4832631 C46.535925,32.7672835 55.9957132,23.3082173 67.7116964,23.3550947 Z" id="Path" fill="#F45747" transform="translate(57.457474, 34.310647) rotate(-45.000000) translate(-57.457474, -34.310647) "></path>
                <path d="M0,66.9024 L3.18387097,66.9024 L3.18387097,68.1232 C3.76774194,67.5152 4.28655914,67.0986667 4.74032258,66.8736 C5.25122033,66.6290421 5.81355934,66.5089172 6.38064516,66.5232 C7.22043011,66.5232 8.09784946,66.7946667 9.01290323,67.3376 L7.56129032,70.2288 C6.95806452,69.8021333 6.36666667,69.5888 5.78709677,69.5888 C4.0516129,69.5888 3.18387097,70.8896 3.18387097,73.4912 L3.18387097,80.5792 L0,80.5792 L0,66.9024 Z" id="Path" fill="#F45747"></path>
                <path d="M25.5467742,74.4816 L15.6709677,74.4816 C15.7612903,75.6048 16.1290323,76.4976 16.7741935,77.16 C17.4193548,77.8224 18.2543011,78.1498667 19.2790323,78.1424 C20.0704301,78.1424 20.7258065,77.9552 21.2451613,77.5808 C21.7645161,77.2064 22.3446237,76.5130667 22.9854839,75.5008 L25.6741935,76.9888 C25.3002634,77.63616 24.8579913,78.242235 24.3548387,78.7968 C23.9194691,79.2745202 23.419569,79.6901939 22.8693548,80.032 C22.3396415,80.3552815 21.7622416,80.594435 21.1580645,80.7408 C20.5046464,80.8957152 19.8347041,80.971468 19.1629032,80.9664 C17.1069892,80.9664 15.455914,80.3109333 14.2096774,79 C12.9634409,77.6890667 12.3419355,75.9397333 12.3451488,73.752 C12.3451488,71.5909333 12.9489247,69.8410667 14.1564516,68.5024 C15.3747312,67.1829333 16.9876344,66.5232 18.9951613,66.5232 C21.0241935,66.5232 22.627957,67.1632 23.8064516,68.4432 C24.9849462,69.7232 25.5698925,71.4869333 25.5612903,73.7344 L25.5467742,74.4816 Z M22.2790323,71.8992 C21.8360215,70.2138667 20.7650538,69.3717333 19.066129,69.3728 C18.6959218,69.3697899 18.3278549,69.4287504 17.9774194,69.5472 C17.6416227,69.662363 17.3280127,69.8333334 17.05,70.0528 C16.7688871,70.2784529 16.5274402,70.5487863 16.3354839,70.8528 C16.1301566,71.1780342 15.9777515,71.5333211 15.883871,71.9056 L22.2790323,71.8992 Z" id="Shape" fill="#F45747"></path>
                <path d="M41.5903226,66.9024 L44.7887097,66.9024 L44.7887097,80.5728 L41.5903226,80.5728 L41.5903226,79.1408 C40.2784946,80.3589333 38.8688172,80.9674667 37.3612903,80.9664014 C35.4548387,80.9664014 33.8795699,80.2832 32.6354839,78.9168 C31.4,77.5226667 30.7822581,75.7824 30.7822581,73.696 C30.7822581,71.6458667 31.4,69.9392 32.6354839,68.576 C33.7973231,67.2412952 35.4985046,66.4898945 37.2758065,66.5264 C38.8790323,66.5264 40.3172043,67.1813333 41.5903226,68.4912 L41.5903226,66.9024 Z M34.0322581,73.696 C34.0322581,75.0048 34.3860215,76.0714667 35.0935484,76.896 C35.7685691,77.7040988 36.777718,78.1634159 37.8354839,78.144 C39.0182796,78.144 39.9709677,77.7418667 40.6935484,76.9376 C41.4193548,76.1056 41.7822581,75.048 41.7822581,73.7648 C41.7822581,72.4816 41.4215054,71.4266667 40.7,70.6 C39.9731183,69.7861333 39.0295699,69.3792 37.8693548,69.3792 C36.8148457,69.3619625 35.8082747,69.8154073 35.1274194,70.6144 C34.3973118,71.4421333 34.0322581,72.4693333 34.0322581,73.696 Z" id="Shape" fill="#F45747"></path>
                <path d="M61.9629032,67.4912 L61.9629032,71.688 C61.2370968,70.808 60.5860215,70.2042667 60.0096774,69.8768 C59.403825,69.5304152 58.7135852,69.3560529 58.0145161,69.3728 C56.8853691,69.3443746 55.7984229,69.7989884 55.0306452,70.6208 C54.2370968,71.4538667 53.8408602,72.4976 53.8419355,73.752 C53.8419355,75.032 54.2236559,76.0842667 54.9870968,76.9088 C55.7465024,77.7257283 56.8254207,78.1762526 57.9451613,78.144 C58.6510298,78.1583084 59.3483646,77.988955 59.9677419,77.6528 C60.5333333,77.3328 61.1983871,76.7152 61.9629032,75.8 L61.9629032,79.9696 C60.7727659,80.6073591 59.4445095,80.949394 58.0919355,80.9664 C55.961828,80.9664 54.1790323,80.2832 52.7435484,78.9168 C51.3080645,77.5504 50.5913978,75.8437333 50.5935484,73.7968 C50.5548399,71.8477178 51.3459144,69.972692 52.7725806,68.632 C54.2263441,67.2293333 56.0091398,66.5274667 58.1209677,66.5263798 C59.4628985,66.5233942 60.7840491,66.8551661 61.9629032,67.4912 L61.9629032,67.4912 Z" id="Path" fill="#F45747"></path>
                <path d="M68.0435484,56.8672 L71.2274194,56.8672 L71.2274194,68.04 C72.3596774,67.0298667 73.6091398,66.5248 74.9758065,66.5248 C76.5317204,66.5248 77.7768817,67.0256 78.7112903,68.0272 C79.5048387,68.8954667 79.9010753,70.2821333 79.9000022,72.1872 L79.9000022,80.5664 L76.716129,80.5664 L76.716129,72.488 C76.716129,71.3936 76.5204301,70.6005333 76.1290323,70.1088 C75.7376344,69.6170667 75.1080645,69.3717333 74.2403226,69.3728 C73.1274194,69.3728 72.3446237,69.7141333 71.8919355,70.3968 C71.4392473,71.0794667 71.2177419,72.2672 71.2274194,73.96 L71.2274194,80.5712 L68.0435484,80.5712 L68.0435484,56.8672 Z" id="Path" fill="#F45747"></path>
            </g>
        </g>
    </g>
</svg>